HIERARCHY
ROOT Hips
{
	OFFSET -30.366390 91.414970 263.936096
	CHANNELS 6 Xposition Yposition Zposition Zrotation Yrotation Xrotation 
	JOINT LeftUpLeg
	{
		OFFSET 0.103456 1.857826 10.548504
		CHANNELS 3 Xrotation Yrotation Zrotation
		JOINT LeftLeg
		{
			OFFSET 43.499996 -0.000038 0.000006
			CHANNELS 3 Xrotation Yrotation Zrotation
			JOINT LeftFoot
			{
				OFFSET 42.372192 0.000011 -0.000004
				CHANNELS 3 Xrotation Yrotation Zrotation
				JOINT LeftToe
				{
					OFFSET 17.300018 0.000006 0.000004
					CHANNELS 3 Xrotation Yrotation Zrotation
					End Site
					{
						OFFSET 0.000000 0.000000 0.000000
					}
				}
			}
		}
	}
	JOINT RightUpLeg
	{
		OFFSET 0.103455 1.857819 -10.548502
		CHANNELS 3 Xrotation Yrotation Zrotation
		JOINT RightLeg
		{
			OFFSET 43.500038 -0.000031 0.000011
			CHANNELS 3 Xrotation Yrotation Zrotation
			JOINT RightFoot
			{
				OFFSET 42.372261 -0.000008 0.000014
				CHANNELS 3 Xrotation Yrotation Zrotation
				JOINT RightToe
				{
					OFFSET 17.299999 -0.000004 0.000004
					CHANNELS 3 Xrotation Yrotation Zrotation
					End Site
					{
						OFFSET 0.000000 0.000000 0.000000
					}
				}
			}
		}
	}
	JOINT Spine
	{
		OFFSET 6.901965 -2.603737 -0.000000
		CHANNELS 3 Xrotation Yrotation Zrotation
		JOINT Spine1
		{
			OFFSET 12.588105 0.000013 0.000001
			CHANNELS 3 Xrotation Yrotation Zrotation
			JOINT Spine2
			{
				OFFSET 12.343203 0.000010 -0.000000
				CHANNELS 3 Xrotation Yrotation Zrotation
				JOINT Neck
				{
					OFFSET 25.832893 -0.000038 0.000001
					CHANNELS 3 Xrotation Yrotation Zrotation
					JOINT Head
					{
						OFFSET 11.766606 0.000028 0.000001
						CHANNELS 3 Xrotation Yrotation Zrotation
						End Site
						{
							OFFSET 0.000000 0.000000 0.000000
						}
					}
				}
				JOINT LeftShoulder
				{
					OFFSET 19.745897 -1.480375 6.000107
					CHANNELS 3 Xrotation Yrotation Zrotation
					JOINT LeftArm
					{
						OFFSET 11.284126 -0.000009 -0.000017
						CHANNELS 3 Xrotation Yrotation Zrotation
						JOINT LeftForeArm
						{
							OFFSET 33.000046 0.000006 0.000030
							CHANNELS 3 Xrotation Yrotation Zrotation
							JOINT LeftHand
							{
								OFFSET 25.200006 0.000034 0.000015
								CHANNELS 3 Xrotation Yrotation Zrotation
								End Site
								{
									OFFSET 0.000000 0.000000 0.000000
								}
							}
						}
					}
				}
				JOINT RightShoulder
				{
					OFFSET 19.746096 -1.480394 -6.000075
					CHANNELS 3 Xrotation Yrotation Zrotation
					JOINT RightArm
					{
						OFFSET 11.284135 -0.000006 -0.000006
						CHANNELS 3 Xrotation Yrotation Zrotation
						JOINT RightForeArm
						{
							OFFSET 33.000095 0.000018 0.000006
							CHANNELS 3 Xrotation Yrotation Zrotation
							JOINT RightHand
							{
								OFFSET 25.199783 0.000116 0.000436
								CHANNELS 3 Xrotation Yrotation Zrotation
								End Site
								{
									OFFSET 0.000000 0.000000 0.000000
								}
							}
						}
					}
				}
			}
		}
	}
}
MOTION
Frames: 7
Frame Time: 0.033333
-103.103500 84.365303 -643.536316 92.361691 -6.956102 106.478025 164.611493 2.162094 173.083537 -46.396727 -1.611494 -11.924496 105.769612 7.802424 -14.103094 21.454558 0.003102 0.000017 124.671402 9.146001 -177.470281 -46.546267 -3.446037 -0.305002 81.517932 3.055246 11.774765 21.454553 -0.003092 -0.000001 15.311894 -1.077511 -1.563467 20.640615 -1.858629 -3.294463 20.322922 -1.878629 -3.283202 -15.225450 4.823757 0.293538 -23.641983 -2.012982 3.209291 99.930722 -71.942970 80.126295 -44.322805 42.128228 -25.207875 -57.451426 -14.318853 1.990860 8.646239 -12.693657 20.857849 152.237513 79.482379 -26.720224 -19.578693 -62.537123 -26.566400 -43.934386 16.894729 -1.690221 10.656196 7.564697 -8.009208 
-103.298798 84.112747 -643.545593 92.412104 -8.663351 109.250973 162.526810 3.061993 174.453987 -46.974520 -1.377471 -11.260543 106.069102 7.382757 -14.007891 21.454562 0.003116 0.000019 127.088087 10.560898 -179.030419 -35.437077 -2.514691 -2.586637 83.918327 4.926975 14.328362 21.454553 -0.003101 -0.000003 15.542172 -0.890122 -1.960419 21.098200 -1.407687 -4.050459 20.780871 -1.432230 -4.041921 -16.222673 5.946810 -0.461497 -24.702236 -2.391005 3.186901 95.698723 -71.562487 84.382910 -45.302927 42.667410 -26.818753 -57.496649 -14.252643 1.988016 7.997182 -13.945232 18.914699 154.316281 79.404392 -24.618097 -16.691770 -62.483896 -29.383822 -46.679412 16.479839 -1.744412 10.249673 5.405092 -9.478359 
-103.572304 83.636757 -643.661987 91.935801 -9.851815 111.969968 160.003328 3.007798 174.691186 -49.086322 -0.919331 -9.950754 106.629498 6.552585 -13.809752 21.454557 0.003098 0.000015 129.287995 11.329690 177.549210 -29.783740 -0.906635 -2.560658 80.673202 5.365657 14.522254 21.454555 -0.003098 -0.000000 15.776106 -0.618422 -2.050971 21.555512 -0.843831 -4.181190 21.238291 -0.869173 -4.176052 -16.540811 7.069906 -1.633269 -25.841169 -2.832173 2.770355 91.706040 -70.936186 88.414968 -46.466217 42.946286 -27.128533 -56.898317 -14.178330 1.961403 7.585042 -14.952237 17.129952 157.434057 79.248725 -21.464725 -13.231139 -62.812530 -31.776062 -49.358389 16.124236 -1.804547 10.238910 5.281266 -8.927628 
-103.744301 83.158249 -643.831421 90.732212 -10.430019 113.558957 157.633362 2.100295 174.597667 -51.564540 -0.455608 -9.072249 107.401890 6.028554 -13.736924 21.454560 0.003113 0.000018 130.556525 10.853189 174.745131 -24.796032 0.705841 -2.686846 67.832248 5.397885 9.476172 21.454557 -0.003100 0.000001 15.992154 -0.311592 -1.728537 21.975978 -0.289195 -3.484646 21.658535 -0.310368 -3.482853 -16.201301 7.594358 -2.751903 -26.983439 -3.160397 2.057520 90.022993 -70.460894 90.131702 -47.607515 42.861257 -26.580567 -55.972570 -14.056629 1.920145 7.755436 -14.743824 16.739481 159.243306 79.165219 -19.633170 -10.087200 -63.129226 -34.005733 -51.597086 15.940055 -1.865272 10.164274 6.863361 -7.699693 
-103.824203 82.364388 -643.741882 89.673615 -10.810231 113.917966 155.439847 1.279008 174.989023 -54.712097 -0.352469 -9.080166 108.559197 6.151536 -14.127120 21.454562 0.003116 0.000019 129.747667 10.408091 175.257682 -23.897582 0.918482 -2.905667 60.629451 6.297239 9.520599 21.454551 -0.003078 0.000003 16.179810 -0.099716 -1.343387 22.346067 0.061846 -2.680636 22.028338 0.045544 -2.680974 -15.865501 7.509481 -3.371567 -28.005813 -3.384018 1.523651 90.770557 -70.322528 89.402825 -48.029743 42.865137 -25.931641 -55.288742 -13.982252 1.891010 8.289355 -13.483894 17.806868 158.391718 79.233179 -20.493776 -8.538343 -62.919184 -35.432556 -53.540623 15.916653 -1.929260 10.023976 8.780651 -6.921274 
-103.775299 81.785019 -643.547485 88.717716 -11.359391 113.422975 153.593783 0.950697 176.017117 -57.156454 -0.432461 -9.959783 109.155610 6.818432 -14.835615 21.454558 0.003111 0.000018 127.284045 9.578798 177.234557 -26.659113 0.506863 -4.228260 60.504425 6.522738 7.725799 21.454553 -0.003092 -0.000001 16.371612 0.028392 -1.112558 22.727791 0.274703 -2.197777 22.409941 0.261286 -2.199412 -16.033913 7.420560 -3.453139 -28.790610 -3.656841 1.581913 92.151300 -70.214857 88.041733 -47.553116 43.186576 -25.888065 -54.774664 -14.128264 1.882838 8.836549 -12.357765 18.905487 155.818198 79.441616 -23.092987 -10.200827 -62.078578 -34.034064 -55.590022 15.893690 -1.998969 10.438862 9.147187 -5.269662 
-103.623497 81.414726 -643.257080 88.160790 -12.075661 112.964963 152.535268 1.397987 177.344523 -58.187310 -0.470311 -11.109140 109.741899 7.665433 -15.493524 21.454558 0.003104 0.000017 125.066310 9.133700 179.919491 -29.244442 -0.624236 -5.861520 61.298844 7.208086 6.573695 21.454551 -0.003099 -0.000000 16.565191 0.081790 -1.167356 23.113708 0.394988 -2.294788 22.795883 0.380989 -2.297145 -16.315102 7.992387 -3.364479 -29.441493 -4.113184 2.200230 92.172631 -69.803946 88.060113 -46.574254 43.749547 -26.181018 -53.464819 -14.502874 1.862717 9.318389 -12.383918 18.399666 154.133136 79.659021 -24.788701 -13.748975 -61.184944 -29.918315 -57.942134 15.702233 -2.070349 11.482318 6.989871 -0.752512 
